<?xml version="1.0" standalone="no"?>
<svg xmlns:xlink="http://www.w3.org/1999/xlink" id="wave" style="transform:rotate(180deg); transition: 0.3s" viewBox="0 0 1440 190" version="1.1" xmlns="http://www.w3.org/2000/svg"><defs><linearGradient id="sw-gradient-0" x1="0" x2="0" y1="1" y2="0"><stop stop-color="rgba(255, 221, 219, 1)" offset="0%"/><stop stop-color="rgba(255, 221, 219, 1)" offset="100%"/></linearGradient></defs><path style="transform:translate(0, 0px); opacity:1" fill="url(#sw-gradient-0)" d="M0,133L34.3,114C68.6,95,137,57,206,50.7C274.3,44,343,70,411,91.8C480,114,549,133,617,120.3C685.7,108,754,63,823,66.5C891.4,70,960,120,1029,139.3C1097.1,158,1166,146,1234,139.3C1302.9,133,1371,133,1440,120.3C1508.6,108,1577,82,1646,60.2C1714.3,38,1783,19,1851,12.7C1920,6,1989,13,2057,15.8C2125.7,19,2194,19,2263,19C2331.4,19,2400,19,2469,28.5C2537.1,38,2606,57,2674,53.8C2742.9,51,2811,25,2880,22.2C2948.6,19,3017,38,3086,63.3C3154.3,89,3223,120,3291,136.2C3360,152,3429,152,3497,133C3565.7,114,3634,76,3703,66.5C3771.4,57,3840,76,3909,72.8C3977.1,70,4046,44,4114,41.2C4182.9,38,4251,57,4320,57C4388.6,57,4457,38,4526,53.8C4594.3,70,4663,120,4731,145.7C4800,171,4869,171,4903,171L4937.1,171L4937.1,190L4902.9,190C4868.6,190,4800,190,4731,190C4662.9,190,4594,190,4526,190C4457.1,190,4389,190,4320,190C4251.4,190,4183,190,4114,190C4045.7,190,3977,190,3909,190C3840,190,3771,190,3703,190C3634.3,190,3566,190,3497,190C3428.6,190,3360,190,3291,190C3222.9,190,3154,190,3086,190C3017.1,190,2949,190,2880,190C2811.4,190,2743,190,2674,190C2605.7,190,2537,190,2469,190C2400,190,2331,190,2263,190C2194.3,190,2126,190,2057,190C1988.6,190,1920,190,1851,190C1782.9,190,1714,190,1646,190C1577.1,190,1509,190,1440,190C1371.4,190,1303,190,1234,190C1165.7,190,1097,190,1029,190C960,190,891,190,823,190C754.3,190,686,190,617,190C548.6,190,480,190,411,190C342.9,190,274,190,206,190C137.1,190,69,190,34,190L0,190Z"/></svg>