<?xml version="1.0" standalone="no"?>
<svg xmlns:xlink="http://www.w3.org/1999/xlink" id="wave" style="transform:rotate(180deg); transition: 0.3s" viewBox="0 0 1440 190" version="1.1" xmlns="http://www.w3.org/2000/svg"><defs><linearGradient id="sw-gradient-0" x1="0" x2="0" y1="1" y2="0"><stop stop-color="rgba(2, 67, 117, 0.30196078431372547)" offset="0%"/><stop stop-color="rgba(2, 67, 117, 0.30196078431372547)" offset="100%"/></linearGradient></defs><path style="transform:translate(0, 0px); opacity:1" fill="url(#sw-gradient-0)" d="M0,38L34.3,60.2C68.6,82,137,127,206,133C274.3,139,343,108,411,107.7C480,108,549,139,617,136.2C685.7,133,754,95,823,88.7C891.4,82,960,108,1029,126.7C1097.1,146,1166,158,1234,142.5C1302.9,127,1371,82,1440,63.3C1508.6,44,1577,51,1646,57C1714.3,63,1783,70,1851,60.2C1920,51,1989,25,2057,28.5C2125.7,32,2194,63,2263,69.7C2331.4,76,2400,57,2469,44.3C2537.1,32,2606,25,2674,28.5C2742.9,32,2811,44,2880,57C2948.6,70,3017,82,3086,88.7C3154.3,95,3223,95,3291,88.7C3360,82,3429,70,3497,69.7C3565.7,70,3634,82,3703,91.8C3771.4,101,3840,108,3909,117.2C3977.1,127,4046,139,4114,120.3C4182.9,101,4251,51,4320,53.8C4388.6,57,4457,114,4526,142.5C4594.3,171,4663,171,4731,155.2C4800,139,4869,108,4903,91.8L4937.1,76L4937.1,190L4902.9,190C4868.6,190,4800,190,4731,190C4662.9,190,4594,190,4526,190C4457.1,190,4389,190,4320,190C4251.4,190,4183,190,4114,190C4045.7,190,3977,190,3909,190C3840,190,3771,190,3703,190C3634.3,190,3566,190,3497,190C3428.6,190,3360,190,3291,190C3222.9,190,3154,190,3086,190C3017.1,190,2949,190,2880,190C2811.4,190,2743,190,2674,190C2605.7,190,2537,190,2469,190C2400,190,2331,190,2263,190C2194.3,190,2126,190,2057,190C1988.6,190,1920,190,1851,190C1782.9,190,1714,190,1646,190C1577.1,190,1509,190,1440,190C1371.4,190,1303,190,1234,190C1165.7,190,1097,190,1029,190C960,190,891,190,823,190C754.3,190,686,190,617,190C548.6,190,480,190,411,190C342.9,190,274,190,206,190C137.1,190,69,190,34,190L0,190Z"/></svg>