<?xml version="1.0" standalone="no"?>
<svg xmlns:xlink="http://www.w3.org/1999/xlink" id="wave" style="transform:rotate(0deg); transition: 0.3s" viewBox="0 0 1440 190" version="1.1" xmlns="http://www.w3.org/2000/svg"><defs><linearGradient id="sw-gradient-0" x1="0" x2="0" y1="1" y2="0"><stop stop-color="rgba(2, 67, 117, 0.30196078431372547)" offset="0%"/><stop stop-color="rgba(2, 67, 117, 0.30196078431372547)" offset="100%"/></linearGradient></defs><path style="transform:translate(0, 0px); opacity:1" fill="url(#sw-gradient-0)" d="M0,114L34.3,98.2C68.6,82,137,51,206,53.8C274.3,57,343,95,411,117.2C480,139,549,146,617,133C685.7,120,754,89,823,85.5C891.4,82,960,108,1029,98.2C1097.1,89,1166,44,1234,22.2C1302.9,0,1371,0,1440,28.5C1508.6,57,1577,114,1646,126.7C1714.3,139,1783,108,1851,98.2C1920,89,1989,101,2057,101.3C2125.7,101,2194,89,2263,72.8C2331.4,57,2400,38,2469,47.5C2537.1,57,2606,95,2674,91.8C2742.9,89,2811,44,2880,25.3C2948.6,6,3017,13,3086,12.7C3154.3,13,3223,6,3291,31.7C3360,57,3429,114,3497,117.2C3565.7,120,3634,70,3703,44.3C3771.4,19,3840,19,3909,22.2C3977.1,25,4046,32,4114,47.5C4182.9,63,4251,89,4320,95C4388.6,101,4457,89,4526,76C4594.3,63,4663,51,4731,53.8C4800,57,4869,76,4903,85.5L4937.1,95L4937.1,190L4902.9,190C4868.6,190,4800,190,4731,190C4662.9,190,4594,190,4526,190C4457.1,190,4389,190,4320,190C4251.4,190,4183,190,4114,190C4045.7,190,3977,190,3909,190C3840,190,3771,190,3703,190C3634.3,190,3566,190,3497,190C3428.6,190,3360,190,3291,190C3222.9,190,3154,190,3086,190C3017.1,190,2949,190,2880,190C2811.4,190,2743,190,2674,190C2605.7,190,2537,190,2469,190C2400,190,2331,190,2263,190C2194.3,190,2126,190,2057,190C1988.6,190,1920,190,1851,190C1782.9,190,1714,190,1646,190C1577.1,190,1509,190,1440,190C1371.4,190,1303,190,1234,190C1165.7,190,1097,190,1029,190C960,190,891,190,823,190C754.3,190,686,190,617,190C548.6,190,480,190,411,190C342.9,190,274,190,206,190C137.1,190,69,190,34,190L0,190Z"/></svg>